<svg width="32" height="32" viewBox="0 0 100 70" xmlns="http://www.w3.org/2000/svg">
  <path d="M61.41 42.27H32l14.7 14.71z" fill="#e84130"/>
  <path d="M98.8 42.27H66.87L46.71 62.43 26.66 42.38c-1.94.32-4.17 1.39-5.39 2.65L.82 66.37c-1.46 1.52-.91 2.77 1.21 2.77h71.02c2.12 0 5.05-1.24 6.51-2.77l20.45-21.34c1.46-1.52.91-2.77-1.21-2.77Z" fill="#e84130"/>
  <path d="M67.83 21.08H56.81l-1.89 1.89a9.5 9.5 0 0 1 1.39 4.96c0 5.3-4.3 9.6-9.6 9.6s-9.6-4.3-9.6-9.6c0-2.68 1.1-5.11 2.88-6.85h-12.2c-.83 0-1.78.19-2.72.52l-6.87 6.87 19.49 19.49h18.04l19.49-19.49-7.38-7.38ZM14.84 30.56.82 45.19c-1.46 1.52-.91 2.77 1.21 2.77h30.2z" fill="#ee730d"/>
  <path d="M98.8 21.08H73.29l7.38 7.38-19.49 19.49h11.87c2.12 0 5.05-1.24 6.51-2.77l20.45-21.34c1.46-1.52.91-2.77-1.21-2.77Z" fill="#ee730d"/>
  <path d="M98.8 0H46.66L19.79 26.87h17.37c.53-4.8 4.6-8.54 9.54-8.54 2.09 0 4.02.68 5.6 1.81l10.02-10.02 15.37 15.37c.73-.41 1.38-.88 1.87-1.38l20.45-21.34c1.46-1.52.91-2.77-1.21-2.77M41.21 0H27.78c-2.12 0-5.05 1.24-6.51 2.77L.82 24.1c-1.46 1.52-.91 2.77 1.21 2.77h12.31z" fill="#ffa714"/>
  <path d="M73.58 26.83 62.32 15.57l-7.4 7.4c.7 1.16 1.16 2.48 1.31 3.89h16.81c.17 0 .35-.02.54-.04Z" fill="#ffa714"/>
</svg>
